<svg xmlns="http://www.w3.org/2000/svg" viewBox="0 0 64 64">
  <circle cx="32" cy="32" r="24" fill="#e23b33" />
  <path
    fill="#2f8f3c"
    d="M34 17.5
       C34.8 21.4 35.4 23.8 36.2 27
       C38.6 26.3 40.9 25.4 43.5 24
       C42.2 27.4 41.2 30 40.7 32.8
       C42.7 34.5 44.3 36.4 45.6 38.8
       C42.8 38.6 40.4 38.8 37.9 39.8
       C37.7 43 37.8 45.6 38.3 48.9
       C35.9 47 33.9 45.4 31.5 44.1
       C29.1 46.2 27 48 24.9 50.3
       C24.1 47 23.5 44.4 22.6 41.5
       C20.1 40.4 17.8 39.4 15.2 38.7
       C17 36.4 18.6 34.5 20.4 32.3
       C19.3 29.5 18 27 16.3 24.2
       C19.2 24.8 21.8 25 24.5 24.6
       C26.8 22.7 29.1 20.5 34 17.5Z"
  />
</svg>
